<svg width="79" height="79" viewBox="0 0 79 79" fill="none" xmlns="http://www.w3.org/2000/svg">
<path d="M39.4999 72.4167C57.6793 72.4167 72.4166 57.6794 72.4166 39.5C72.4166 21.3206 57.6793 6.58333 39.4999 6.58333C21.3205 6.58333 6.58325 21.3206 6.58325 39.5C6.58325 57.6794 21.3205 72.4167 39.4999 72.4167Z" fill="#2F88FF" stroke="black" stroke-width="4" stroke-linecap="round" stroke-linejoin="round"/>
<path d="M32.9165 26.3333H44.4373C46.1833 26.3333 47.8578 27.0269 49.0925 28.2615C50.3271 29.4962 51.0207 31.1707 51.0207 32.9167C51.0207 34.6627 50.3271 36.3372 49.0925 37.5718C47.8578 38.8064 46.1833 39.5 44.4373 39.5H32.9165V26.3333Z" fill="#2F88FF"/>
<path d="M41.1458 26.3333V19.75M32.9166 26.3333V39.5H44.4374C46.1834 39.5 47.8579 38.8064 49.0925 37.5718C50.3272 36.3372 51.0208 34.6627 51.0208 32.9167C51.0208 31.1707 50.3272 29.4962 49.0925 28.2615C47.8579 27.0269 46.1834 26.3333 44.4374 26.3333H41.1458H32.9166ZM32.9166 26.3333H26.3333H32.9166ZM32.9166 26.3333V19.75V26.3333ZM32.9166 26.3333H41.1458H32.9166Z" stroke="white" stroke-width="4" stroke-linecap="round" stroke-linejoin="round"/>
<path d="M32.9165 39.5H47.729C49.475 39.5 51.1495 40.1936 52.3841 41.4282C53.6187 42.6628 54.3123 44.3373 54.3123 46.0833C54.3123 47.8293 53.6187 49.5038 52.3841 50.7385C51.1495 51.9731 49.475 52.6667 47.729 52.6667H32.9165V39.5Z" fill="#2F88FF"/>
<path d="M41.1458 52.6667V59.25M32.9166 52.6667V39.5H47.7291C49.4751 39.5 51.1496 40.1936 52.3842 41.4282C53.6188 42.6628 54.3124 44.3373 54.3124 46.0833C54.3124 47.8293 53.6188 49.5038 52.3842 50.7385C51.1496 51.9731 49.4751 52.6667 47.7291 52.6667H41.1458H32.9166ZM32.9166 52.6667V59.25V52.6667ZM32.9166 52.6667H26.3333H41.1458H32.9166ZM32.9166 52.6667H41.1458H32.9166Z" stroke="white" stroke-width="4" stroke-linecap="round" stroke-linejoin="round"/>
</svg>
